<?xml version="1.0" encoding="utf-8"?>
<!-- Generator: Adobe Illustrator 17.0.1, SVG Export Plug-In . SVG Version: 6.00 Build 0)  -->
<!DOCTYPE svg PUBLIC "-//W3C//DTD SVG 1.1//EN" "http://www.w3.org/Graphics/SVG/1.1/DTD/svg11.dtd">
<svg version="1.1" id="Layer_1" xmlns="http://www.w3.org/2000/svg" xmlns:xlink="http://www.w3.org/1999/xlink" x="0px" y="0px"
	 width="1108.135px" height="637.427px" viewBox="0 0 1108.135 637.427" preserveAspectRatio="none" enable-background="new 0 0 1108.135 637.427"
	 xml:space="preserve">
<g display="none">
	<g display="inline">
		<path fill="#6CDEEA" d="M619.517,170.837l-49.523,59.691L556.218,219.1l18.76-22.612l-4.592-3.811
			c-2.542-2.108-4.907-3.313-7.093-3.616c-2.187-0.302-4.906,0.684-8.157,2.958l-17.198,11.914l-15.507-12.865l18.337-11.701
			c2.358-1.553,4.677-2.848,6.952-3.885c2.274-1.039,4.767-1.311,7.479-0.816c-1.313-2.063-2.121-4.173-2.428-6.329
			c-0.309-2.157-0.239-4.269,0.21-6.335c0.445-2.066,1.169-4.025,2.171-5.878c0.999-1.852,2.099-3.499,3.297-4.943
			c1.82-2.194,4.001-4.091,6.546-5.686c2.541-1.596,5.283-2.638,8.223-3.125c2.938-0.487,6.047-0.297,9.326,0.571
			c3.277,0.867,6.534,2.643,9.77,5.326L619.517,170.837z M595.607,171.624l-10.57-8.77c-2.599-2.156-4.979-3.076-7.145-2.76
			c-2.164,0.316-4.089,1.492-5.776,3.526c-1.544,1.861-2.2,3.797-1.966,5.806c0.233,2.011,1.564,4.021,3.99,6.034l10.829,8.985
			L595.607,171.624z"/>
	</g>
</g>
<g display="none">
	<path display="inline" fill="#1992AB" d="M834.682,398.953l120.576-113.04l-90.943-17.82l8.846-45.152l152.428,29.868l-8.281,42.27
		l-122.49,114.328l96.387,18.887l-8.848,45.151l-156.27-30.62L834.682,398.953z"/>
</g>
<g display="none">
	<path display="inline" fill="#3EB8CC" d="M355.61,448.647l-52.226-41.856l-34.576,23.376l-40.228-32.241l183.465-111.771
		l38.581,30.921l-70.073,202.649l-39.993-32.052L355.61,448.647z M336.623,384.598l33.406,26.773l5.321-13.389l21.89-53.827
		l-0.941-0.754l-47.768,33.086L336.623,384.598z"/>
</g>
<g>
	<polygon fill="#3EB8CC" points="159.197,476.257 356.61,456.052 411.069,285.868 499.565,269.53 602.501,158.121 586.699,15.927 
		1108.135,4.927 1053.135,242.41 867.162,312.625 841.301,446.949 629.808,430.611 576.293,502.218 375.671,599.006 
		236.801,569.054 68.635,637.427 	"/>
	<g>
		<polygon fill="#6CDEEA" points="628.345,430.218 498.102,269.137 602.501,158.121 		"/>
		<g>
			<polygon fill="#1992AB" points="411.069,285.868 576.293,502.218 629.808,430.611 			"/>
			<polygon fill="#1992AB" points="375.671,599.006 357.391,457.84 576.293,502.218 			"/>
			<polygon fill="#1992AB" points="375.671,599.006 236.801,569.054 159.197,476.257 			"/>
			<polygon fill="#1992AB" points="867.162,312.625 628.345,430.218 841.301,446.949 			"/>
			<polygon fill="#1992AB" points="867.162,312.625 602.501,158.121 1053.135,242.41 			"/>
			<polygon fill="#3EB8CC" points="602.501,158.121 1108.135,4.927 741.626,0 586.699,15.927 			"/>
			<polygon fill="#6CDEEA" points="602.501,158.121 741.626,0 1108.135,4.927 			"/>
		</g>
	</g>
</g>
<g display="none">
	<polygon display="inline" fill="#1992AB" points="73.519,486.431 16.965,463.286 0,491.877 16.965,520.468 76.242,508.215 	"/>
	<polyline display="inline" fill="#3EB8CC" points="0,491.877 76.242,508.215 73.519,486.431 16.965,463.286 0,491.877 	"/>
</g>
<polygon display="none" fill="#6CDEEA" points="250.973,277.998 292.973,261.148 291.817,322.942 "/>
<polygon display="none" fill="#1992AB" points="823.945,541.272 862.897,530.679 861.825,569.527 "/>
<g display="none">
	<polygon display="inline" fill="#1992AB" points="637.104,508.682 658.745,495.067 709.12,505.959 709.12,561.779 	"/>
	<polygon display="inline" fill="#6CDEEA" points="658.745,495.067 675.476,517.633 637.104,508.682 	"/>
	<polygon display="inline" fill="#3EB8CC" points="658.745,495.067 675.476,517.633 709.12,505.959 	"/>
</g>
</svg>
